<?xml version="1.0" encoding="UTF-8"?>
<svg version="1.1" xmlns="http://www.w3.org/2000/svg" width="1254" height="1254">
<path d="M0 0 C413.82 0 827.64 0 1254 0 C1254 413.82 1254 827.64 1254 1254 C840.18 1254 426.36 1254 0 1254 C0 840.18 0 426.36 0 0 Z " fill="#FDFDFD" transform="translate(0,0)"/>
<path d="M0 0 C-3.32287578 4.04665648 -6.54946754 7.70345704 -10.75 10.875 C-14.27572811 13.61020611 -17.64376523 16.42653419 -20.9375 19.4375 C-25.15501759 23.28172799 -29.51373119 26.89583344 -33.94921875 30.484375 C-37.52056499 33.42924949 -41.01214487 36.45716976 -44.5 39.5 C-48.78206292 43.23415168 -53.08331835 46.92459104 -57.5 50.5 C-62.07533986 54.20712778 -66.54904276 58.02034325 -71 61.875 C-71.64775391 62.43509766 -72.29550781 62.99519531 -72.96289062 63.57226562 C-75.73742397 65.9835021 -78.39686561 68.39686561 -81 71 C-76.71 71 -72.42 71 -68 71 C-68.65047301 78.84791457 -70.34531268 86.29062909 -72.1875 93.9375 C-72.50293986 95.26369685 -72.81779078 96.59003392 -73.13208008 97.91650391 C-73.61365678 99.94859111 -74.0956362 101.98057329 -74.57963562 104.01208496 C-76.15438707 110.62419982 -77.67144967 117.24920774 -79.1875 123.875 C-81.3504371 133.27953191 -83.61799573 142.64842769 -86 152 C-89.42591458 165.48921954 -92.74547863 178.99365229 -95.81982422 192.56787109 C-97.7546334 201.07746123 -99.86195155 209.53984551 -102 218 C-102.34563166 219.37009416 -102.69117231 220.74021128 -103.03662109 222.11035156 C-103.29274673 223.12612274 -103.29274673 223.12612274 -103.55404663 224.16241455 C-104.24009104 226.88461217 -104.92515051 229.60705699 -105.60986328 232.32958984 C-105.95604545 233.70414635 -106.30306379 235.07849251 -106.65087891 236.45263672 C-108.44754078 243.55404724 -110.18569999 250.64397481 -111.56152344 257.84082031 C-112.49139245 262.41975211 -113.83914641 266.88932699 -115.09765625 271.38671875 C-116.19775874 275.52892695 -116.19775874 275.52892695 -117 282 C-140.43 282 -163.86 282 -188 282 C-186.87528345 270.75283447 -186.87528345 270.75283447 -185.80078125 266.6171875 C-185.56423828 265.69059326 -185.32769531 264.76399902 -185.08398438 263.80932617 C-184.70209961 262.35683472 -184.70209961 262.35683472 -184.3125 260.875 C-183.76686886 258.74350449 -183.2212976 256.61199365 -182.67578125 254.48046875 C-182.39686035 253.40200684 -182.11793945 252.32354492 -181.83056641 251.21240234 C-178.04092954 236.55512961 -174.48643353 221.87038017 -171.25219727 207.08032227 C-169.16308506 197.58627856 -166.83545636 188.16415823 -164.4453125 178.7421875 C-163.0137423 173.09064731 -161.65324738 167.42368782 -160.3125 161.75 C-158.59558207 154.48564698 -156.84215357 147.23382255 -155 140 C-160.15857639 144.31880814 -165.10602454 148.83800938 -170.03686523 153.41210938 C-173.24807022 156.38908314 -176.47983548 159.33759706 -179.75 162.25 C-186.53634284 168.33468542 -193.1324182 174.62422204 -199.7578125 180.8828125 C-203.35561295 184.28003871 -206.95899255 187.67132951 -210.5625 191.0625 C-211.26576416 191.72451416 -211.96902832 192.38652832 -212.69360352 193.06860352 C-218.11585051 198.17156466 -223.54702613 203.26493845 -228.98071289 208.35571289 C-233.82680523 212.89710189 -238.66487985 217.44693312 -243.5 222 C-245.62504595 224.00028692 -247.7502202 226.00043737 -249.87548828 228.00048828 C-251.29853103 229.3398034 -252.72138083 230.67932356 -254.14404297 232.01904297 C-262.01983005 239.43335111 -269.90734452 246.82165896 -278 254 C-281.47497274 252.84167575 -281.7005357 252.30931691 -283.4609375 249.265625 C-283.92516113 248.47559082 -284.38938477 247.68555664 -284.86767578 246.87158203 C-285.36509277 246.00645996 -285.86250977 245.14133789 -286.375 244.25 C-287.46210296 242.39759243 -288.55068986 240.54605506 -289.640625 238.6953125 C-290.19943359 237.74301758 -290.75824219 236.79072266 -291.33398438 235.80957031 C-293.86557947 231.54028596 -296.49446769 227.333769 -299.125 223.125 C-304.81210879 213.98840438 -310.36135231 204.77201686 -315.88696289 195.53735352 C-321.76574948 185.71248029 -327.67809274 175.9088006 -333.625 166.125 C-334.00088257 165.50656219 -334.37676514 164.88812439 -334.76403809 164.25094604 C-336.84158438 160.83328954 -338.92025799 157.41632075 -341 154 C-343.38411985 163.28842069 -345.5389494 172.62340933 -347.67245483 181.97155762 C-350.81299288 195.72055938 -354.06029523 209.42867704 -357.53930664 223.09643555 C-359.85771335 232.26778969 -361.91903591 241.48572733 -363.93115234 250.72851562 C-365.4972106 257.87971971 -367.22388432 264.94673508 -369.23828125 271.984375 C-370.06843847 275.27094613 -370.52061058 278.64427406 -371 282 C-394.43 282 -417.86 282 -442 282 C-440.71641588 273.01491119 -439.35658727 264.56812634 -437.13671875 255.84765625 C-436.86285843 254.74562363 -436.58899811 253.643591 -436.30683899 252.50816345 C-435.4402676 249.02460276 -434.56458942 245.54342588 -433.6875 242.0625 C-432.54107697 237.49199873 -431.3992546 232.92037744 -430.26171875 228.34765625 C-429.98383514 227.23210358 -429.70595154 226.1165509 -429.41964722 224.9671936 C-427.32397496 216.48312972 -425.40779246 207.96869268 -423.61320496 199.41603088 C-420.59568638 185.10350335 -420.59568638 185.10350335 -415 181 C-413.93285859 179.83533914 -412.89392401 178.64457065 -411.875 177.4375 C-408.90665755 173.95715088 -405.75674333 170.70815171 -402.5 167.5 C-398.7870695 163.83202931 -395.23598364 160.08849502 -391.83984375 156.125 C-384.47098822 147.61405008 -376.6511179 139.48545244 -368.92431641 131.30151367 C-364.89153148 127.02564491 -360.8932726 122.72215646 -356.9375 118.375 C-353.58308694 114.69467237 -350.16333995 111.12689538 -346.609375 107.640625 C-344.20255376 105.18706937 -341.9925772 102.5717414 -339.75 99.96875 C-337.5207971 97.46089674 -335.1429125 95.13143192 -332.75 92.78125 C-330.91757513 90.91610326 -329.20646865 88.98072254 -327.5 87 C-324.7188163 83.77184035 -321.79245224 80.76932111 -318.75390625 77.78515625 C-316.89989889 75.89811535 -315.16616009 73.9397063 -313.4375 71.9375 C-310.42475889 68.45656264 -307.37270133 65.13739659 -304 62 C-303.34 62 -302.68 62 -302 62 C-299.58236274 66.37446437 -297.16585652 70.74955204 -294.75 75.125 C-294.38619232 75.78381165 -294.02238464 76.44262329 -293.64755249 77.12139893 C-289.00817789 85.52440445 -284.39201373 93.93917723 -279.8125 102.375 C-275.06734506 111.11286039 -270.20074342 119.77842418 -265.2746582 128.41552734 C-262.72704984 132.89188538 -260.23539207 137.3590476 -258 142 C-254.39239205 140.47438039 -252.10273658 138.33943853 -249.35839844 135.56958008 C-248.44354675 134.65134964 -247.52869507 133.7331192 -246.58612061 132.7870636 C-245.59384638 131.78124482 -244.60159852 130.77540004 -243.609375 129.76953125 C-242.58101883 128.73489692 -241.55214063 127.70078121 -240.52276611 126.66716003 C-237.81231648 123.94341544 -235.10747974 121.21417059 -232.40423584 118.48327637 C-228.09365706 114.12959657 -223.77649716 109.78247212 -219.45581818 105.43881798 C-217.95796189 103.93086148 -216.46364094 102.41946917 -214.96966553 100.90766907 C-210.4426837 96.34880951 -205.87461316 91.94935625 -200.99639893 87.77030945 C-196.92334604 84.15852429 -193.14164037 80.24142191 -189.3125 76.375 C-188.41055908 75.46927246 -187.50861816 74.56354492 -186.5793457 73.63037109 C-183.71711436 70.75600431 -180.85804198 67.8785306 -178 65 C-174.23225667 61.20524662 -170.46084455 57.41418619 -166.6875 53.625 C-165.83518799 52.76438965 -164.98287598 51.9037793 -164.10473633 51.01708984 C-159.83977628 46.734832 -155.49946901 42.64573488 -150.91671753 38.7074585 C-147.53464208 35.6946236 -144.44398673 32.40546713 -141.31640625 29.1328125 C-139.88063051 27.65520641 -138.44374839 26.1786747 -137.00585938 24.703125 C-134.77292771 22.40839315 -132.54685233 20.10857072 -130.33862305 17.79003906 C-128.18308982 15.53129386 -126.00266192 13.29928252 -123.81640625 11.0703125 C-123.16611954 10.37559845 -122.51583282 9.6808844 -121.84584045 8.96511841 C-117.81149362 4.90639475 -114.98080632 3.20087908 -109.21430969 2.98968506 C-108.11822639 2.99479095 -108.11822639 2.99479095 -107 3 C-105.7106958 2.94271729 -104.4213916 2.88543457 -103.09301758 2.82641602 C-101.79001709 2.80248779 -100.4870166 2.77855957 -99.14453125 2.75390625 C-97.63940023 2.72211593 -96.13427344 2.69012449 -94.62915039 2.65795898 C-93.84557159 2.64256073 -93.0619928 2.62716248 -92.25466919 2.61129761 C-78.00310323 2.32653342 -63.79198204 1.77142813 -49.5625 0.9375 C-33.02567665 -0.02721388 -16.56190902 -0.23438365 0 0 Z " fill="#03A02D" transform="translate(986,388)"/>
<path d="M0 0 C1.24132187 0.00222061 2.48264374 0.00444122 3.76158142 0.00672913 C4.44447739 0.0065831 5.12737335 0.00643707 5.83096313 0.00628662 C8.09815092 0.00698575 10.36525752 0.01477811 12.63243103 0.02259827 C14.20041865 0.02446245 15.76840685 0.02588635 17.33639526 0.02688599 C21.47103981 0.03071117 25.60564944 0.04054146 29.74028015 0.05158997 C33.95627876 0.06180407 38.172283 0.0663836 42.38829041 0.07142639 C50.66630125 0.08216373 58.94428368 0.09924015 67.22227478 0.12025452 C66.70745975 4.49922422 66.17677869 8.78202008 65.16368103 13.07728577 C64.83980408 14.46572693 64.83980408 14.46572693 64.50938416 15.88221741 C64.27026306 16.88889465 64.03114197 17.8955719 63.78477478 18.93275452 C63.24432945 21.24002727 62.7039716 23.54732052 62.16368103 25.85462952 C61.85657905 27.15997439 61.54944891 28.46531264 61.24229431 29.77064514 C60.0885451 34.68165759 58.95031419 39.59624308 57.81211853 44.51087952 C50.43614049 76.34701004 50.43614049 76.34701004 46.72227478 91.87025452 C46.49153259 92.83777649 46.26079041 93.80529846 46.02305603 94.80213928 C45.70401306 96.12749695 45.70401306 96.12749695 45.37852478 97.47962952 C45.20127869 98.216651 45.02403259 98.95367249 44.84141541 99.71302795 C44.03061297 102.86543804 43.11649479 105.99048448 42.22227478 109.12025452 C95.02227478 109.12025452 147.82227478 109.12025452 202.22227478 109.12025452 C202.55227478 106.15025452 202.88227478 103.18025452 203.22227478 100.12025452 C203.60306902 98.20710192 204.02482426 96.30133381 204.49961853 94.40931702 C204.89129211 92.82256165 204.89129211 92.82256165 205.2908783 91.20375061 C205.57761414 90.0624469 205.86434998 88.92114319 206.15977478 87.74525452 C206.79432804 85.16754017 207.42737632 82.58950192 208.05821228 80.01087952 C208.22795059 79.31872345 208.3976889 78.62656738 208.5725708 77.91343689 C210.88430071 68.45827241 213.08205492 58.97628399 215.28477478 49.49525452 C215.60608368 48.11460815 215.60608368 48.11460815 215.93388367 46.70606995 C218.8822886 34.03068946 221.77576552 21.34536902 224.5096283 8.62171936 C224.7254657 7.62865784 224.9413031 6.63559631 225.16368103 5.61244202 C225.34616394 4.76021057 225.52864685 3.90797913 225.71665955 3.02992249 C226.22227478 1.12025452 226.22227478 1.12025452 227.22227478 0.12025452 C229.40033197 0.0259611 231.58148758 0.00282914 233.76158142 0.00672913 C234.44447739 0.0065831 235.12737335 0.00643707 235.83096313 0.00628662 C238.09815092 0.00698575 240.36525752 0.01477811 242.63243103 0.02259827 C244.20041865 0.02446245 245.76840685 0.02588635 247.33639526 0.02688599 C251.47103981 0.03071117 255.60564944 0.04054146 259.74028015 0.05158997 C263.95627876 0.06180407 268.172283 0.0663836 272.38829041 0.07142639 C280.66630125 0.08216373 288.94428368 0.09924015 297.22227478 0.12025452 C297.08044726 1.69643636 296.9340373 3.27220622 296.78575134 4.84779358 C296.70472168 5.72534302 296.62369202 6.60289246 296.54020691 7.5070343 C296.06517855 11.41149569 295.05083268 15.09612772 293.97227478 18.87025452 C291.97104075 26.16869886 290.1493981 33.49041645 288.47227478 40.87025452 C288.26183533 41.78645569 288.05139587 42.70265686 287.83457947 43.6466217 C287.53922302 44.95614807 287.53922302 44.95614807 287.23789978 46.29212952 C287.06548767 47.05622131 286.89307556 47.82031311 286.71543884 48.6075592 C286.14470871 51.26750918 286.14470871 51.26750918 285.93663025 54.60975647 C285.08411091 58.7992218 283.84019707 60.19256767 280.77696228 63.11634827 C279.86430603 64.00515686 278.95164978 64.89396545 278.01133728 65.80970764 C277.04062367 66.72640205 276.06926559 67.64241447 275.09727478 68.55775452 C273.21741096 70.366607 271.33976507 72.17776763 269.46446228 73.99134827 C268.56501892 74.85808167 267.66557556 75.72481506 266.73887634 76.61781311 C263.91173138 79.42905058 261.28048701 82.35176195 258.71299744 85.39979553 C257.12723524 87.22994067 255.45192813 88.92626151 253.72227478 90.62025452 C251.28837746 93.01078618 249.00871919 95.47071714 246.78477478 98.05775452 C244.36609699 100.86601799 241.86327796 103.51996045 239.22227478 106.12025452 C236.60186869 108.70034667 234.11904066 111.33129058 231.72227478 114.12025452 C229.3255089 116.90921845 226.84268087 119.54016236 224.22227478 122.12025452 C221.74264149 124.56688888 219.36787102 127.04133226 217.09727478 129.68275452 C213.62213638 133.72379848 209.99229537 137.60822688 206.34727478 141.49525452 C201.68409845 146.47032654 197.06696242 151.47734044 192.52696228 156.56556702 C190.71360319 158.57562947 188.88574751 160.56742886 187.04258728 162.54994202 C186.21815125 163.43721985 186.21815125 163.43721985 185.37705994 164.34242249 C184.29276513 165.50734352 183.20656864 166.67049805 182.11827087 167.8316803 C179.35146396 170.74407022 179.35146396 170.74407022 177.22227478 174.12025452 C127.39227478 174.12025452 77.56227478 174.12025452 26.22227478 174.12025452 C25.89227478 177.42025452 25.56227478 180.72025452 25.22227478 184.12025452 C24.86914148 186.06938068 24.4765642 188.01232267 24.02305603 189.94056702 C23.78627136 190.95868469 23.54948669 191.97680237 23.30552673 193.02577209 C23.05117859 194.08820129 22.79683044 195.15063049 22.53477478 196.24525452 C22.27075867 197.36891418 22.00674255 198.49257385 21.73472595 199.65028381 C19.42493697 209.420575 16.9855962 219.15803207 14.53477478 228.89369202 C11.72242692 240.00750688 11.72242692 240.00750688 9.51914978 251.25306702 C9.39628601 251.98662415 9.27342224 252.72018127 9.14683533 253.47596741 C8.91694045 254.8771945 8.69598708 256.27994104 8.48716736 257.6844635 C7.42236559 264.27498374 5.42538642 269.51091961 3.22227478 276.12025452 C-19.87772522 276.12025452 -42.97772522 276.12025452 -66.77772522 276.12025452 C-64.48018867 260.03749864 -64.48018867 260.03749864 -62.56288147 252.04481506 C-62.35122345 251.14039169 -62.13956543 250.23596832 -61.92149353 249.30413818 C-61.23345704 246.3703703 -60.5369235 243.438695 -59.84022522 240.50697327 C-59.35408086 238.44116908 -58.86849531 236.37523331 -58.38343811 234.30917358 C-57.11383937 228.90775102 -55.83706835 223.5080501 -54.55860901 218.10871887 C-53.2603491 212.62069395 -51.96837308 207.13119083 -50.67616272 201.64173889 C-49.22206125 195.46484146 -47.76745917 189.28807057 -46.30726624 183.11260986 C-46.08507416 182.17218842 -45.86288208 181.23176697 -45.63395691 180.2628479 C-45.22329588 178.52507589 -44.81218501 176.78741008 -44.40049744 175.04988098 C-43.30492293 170.41177793 -42.24830448 165.76749235 -41.23728085 161.1101799 C-40.5374639 158.07989712 -39.63891158 155.10803952 -38.77772522 152.12025452 C-38.21509874 149.71722028 -37.67324387 147.30925758 -37.14881897 144.89759827 C-36.83831164 143.47976579 -36.52767742 142.0619611 -36.2169342 140.6441803 C-36.05458282 139.90008911 -35.89223145 139.15599792 -35.72496033 138.38935852 C-32.83037865 125.14911249 -29.84472891 111.9319465 -26.71522522 98.74525452 C-26.4525737 97.63800018 -26.4525737 97.63800018 -26.18461609 96.50837708 C-23.6507854 85.84432651 -21.07004041 75.19168546 -18.4823246 64.54060364 C-17.97594073 62.45596822 -17.46988634 60.37125307 -16.96392822 58.28651428 C-16.62395699 56.88587713 -16.28397588 55.48524237 -15.94398499 54.08460999 C-15.7750344 53.38857037 -15.60608381 52.69253075 -15.43201351 51.97539902 C-14.4264593 47.83440521 -13.41759667 43.6942338 -12.40639782 39.55461502 C-7.98477634 21.58580161 -7.98477634 21.58580161 -4.28114319 3.45985413 C-3.56114428 0.11370982 -3.49701386 0.15139428 0 0 Z " fill="#1C1C1C" transform="translate(376.77772521972656,393.87974548339844)"/>
<path d="M0 0 C7.42140062 7.01194404 12.59492316 14.96420283 13.12025452 25.38557434 C13.11803391 26.20942123 13.11581329 27.03326813 13.11352539 27.88208008 C13.11341209 29.29297661 13.11341209 29.29297661 13.11329651 30.7323761 C13.10813522 31.7346373 13.10297394 32.7368985 13.09765625 33.76953125 C13.0962413 34.80567062 13.09482635 35.84181 13.09336853 36.90934753 C13.08778242 40.21042804 13.07523242 43.51144008 13.0625 46.8125 C13.05748321 49.05403548 13.05292061 51.29557202 13.04882812 53.53710938 C13.03781753 59.02476586 13.02056239 64.51237133 13 70 C7.72 70 2.44 70 -3 70 C-3 67.03 -3 64.06 -3 61 C-3.61746094 61.47050781 -4.23492188 61.94101562 -4.87109375 62.42578125 C-5.71800781 63.04839844 -6.56492187 63.67101562 -7.4375 64.3125 C-8.26121094 64.92738281 -9.08492187 65.54226563 -9.93359375 66.17578125 C-19.41136861 71.81415177 -30.23215039 72.59830028 -41 71 C-50.80084526 68.28644031 -58.94551122 62.39317817 -63.93359375 53.5859375 C-69.99122082 42.02903855 -72.15947421 30.43848242 -69.19921875 17.5 C-64.56209935 5.2618292 -54.77780134 -3.65505401 -43 -9 C-26.96203415 -12.02603129 -12.65725197 -10.67180068 0 0 Z " fill="#089831" transform="translate(688,773)"/>
<path d="M0 0 C2.59448751 1.79860486 4.82181879 3.72224479 7 6 C7.83144531 6.83144531 7.83144531 6.83144531 8.6796875 7.6796875 C9.11539063 8.11539063 9.55109375 8.55109375 10 9 C10.25652344 8.41347656 10.51304687 7.82695313 10.77734375 7.22265625 C13.55939804 2.16518376 18.6240423 -1.76663207 23.9375 -3.9375 C35.72065972 -7.12707944 46.56074869 -5.99155488 57.03515625 0.01953125 C64.8591841 5.24585816 69.0049747 11.01667656 72 20 C72.61598202 24.39026947 72.58792826 28.67929452 72.48828125 33.10546875 C72.47766914 34.91329582 72.47766914 34.91329582 72.46684265 36.75764465 C72.43908396 40.5682555 72.37637627 44.37734099 72.3125 48.1875 C72.28739338 50.787088 72.26458439 53.38669927 72.24414062 55.98632812 C72.18931739 62.32479726 72.10317076 68.66214095 72 75 C66.72 75 61.44 75 56 75 C55.9906543 73.49171631 55.98130859 71.98343262 55.97167969 70.42944336 C55.9317186 64.81765533 55.86594154 59.20641196 55.79248047 53.5949707 C55.76430655 51.16926079 55.74307429 48.74345967 55.72900391 46.31762695 C55.70752573 42.82455884 55.66084738 39.33258309 55.609375 35.83984375 C55.60814636 34.76041 55.60691772 33.68097626 55.60565186 32.5688324 C55.48200669 26.16962675 54.79972256 22.21038489 51 17 C44.97135447 11.42350288 40.30831834 10.4693592 32.19921875 10.6328125 C27.4778538 11.17470298 25.14617781 12.54440156 22 16 C17.05926441 22.72037691 16.26223592 28.63246278 16.29296875 36.81640625 C16.27028679 38.46200783 16.27028679 38.46200783 16.24714661 40.14085388 C16.20445765 43.6149481 16.19544931 47.08817025 16.1875 50.5625 C16.16434124 52.93036142 16.13897306 55.29820233 16.11132812 57.66601562 C16.04866081 63.44408689 16.01617883 69.22161915 16 75 C10.72 75 5.44 75 0 75 C-0.0093457 73.49171631 -0.01869141 71.98343262 -0.02832031 70.42944336 C-0.0682814 64.81765533 -0.13405846 59.20641196 -0.20751953 53.5949707 C-0.23569345 51.16926079 -0.25692571 48.74345967 -0.27099609 46.31762695 C-0.29247427 42.82455884 -0.33915262 39.33258309 -0.390625 35.83984375 C-0.39185364 34.76041 -0.39308228 33.68097626 -0.39434814 32.5688324 C-0.51799331 26.16962675 -1.20027744 22.21038489 -5 17 C-10.97712915 11.47115554 -15.67977837 10.41793092 -23.73046875 10.5625 C-28.68168513 11.22502836 -31.88160513 13.12190336 -35 17 C-39.06568875 23.68411331 -39.60034049 28.98017218 -39.609375 36.71875 C-39.62591125 37.81723267 -39.64244751 38.91571533 -39.65948486 40.04748535 C-39.70779597 43.53171475 -39.7292991 47.01550817 -39.75 50.5 C-39.77817367 52.87241757 -39.80810304 55.24481498 -39.83984375 57.6171875 C-39.91355097 63.41142243 -39.96322913 69.20541772 -40 75 C-45.28 75 -50.56 75 -56 75 C-56.12438236 67.67177388 -56.21470992 60.34417372 -56.2746582 53.01513672 C-56.29967123 50.52642093 -56.3336927 48.03777763 -56.37719727 45.54931641 C-56.43843042 41.95456976 -56.46634345 38.36080136 -56.48828125 34.765625 C-56.52699089 33.11956268 -56.52699089 33.11956268 -56.56648254 31.44024658 C-56.56981714 22.07900188 -53.96849589 14.49515092 -48.8125 6.6875 C-34.90728991 -6.59970075 -17.04652649 -9.18073797 0 0 Z " fill="#078F2D" transform="translate(523,768)"/>
<path d="M0 0 C9.87876921 6.61703756 15.86389784 14.69448921 18.19921875 26.37109375 C18.19921875 31.32109375 18.19921875 36.27109375 18.19921875 41.37109375 C-2.59078125 41.37109375 -23.38078125 41.37109375 -44.80078125 41.37109375 C-40.33436877 53.15002174 -40.33436877 53.15002174 -30.80078125 60.37109375 C-21.29489935 62.92145231 -11.40029105 62.14351674 -2.80078125 57.37109375 C-0.60561902 55.82130921 1.24134406 54.2259224 3.19921875 52.37109375 C6.19142143 53.73479674 8.48948404 55.32017458 10.94921875 57.49609375 C11.5628125 58.03492188 12.17640625 58.57375 12.80859375 59.12890625 C13.2675 59.53882813 13.72640625 59.94875 14.19921875 60.37109375 C11.21520197 67.36440487 4.17369583 71.23114502 -2.48828125 74.30859375 C-13.75614525 78.24047135 -27.49081618 78.74098566 -38.58764648 74.05786133 C-49.21706432 68.81425434 -56.21159114 60.68100628 -60.14453125 49.46484375 C-60.36109375 48.77390625 -60.57765625 48.08296875 -60.80078125 47.37109375 C-61.29578125 45.88609375 -61.29578125 45.88609375 -61.80078125 44.37109375 C-62.63610715 31.663185 -61.98285164 20.52277373 -53.54296875 10.27734375 C-39.84409748 -4.71155576 -18.44375179 -10.72670083 0 0 Z " fill="#09A739" transform="translate(937.80078125,767.62890625)"/>
<path d="M0 0 C5.28 0 10.56 0 16 0 C16.33 14.19 16.66 28.38 17 43 C19.64 40.69 22.28 38.38 25 36 C30.21876678 33.12997113 34.49887489 32.51065946 40.3125 32.625 C41.43289673 32.64022705 41.43289673 32.64022705 42.57592773 32.65576172 C54.18559777 32.98045493 62.15853464 36.7487257 70.1875 45.125 C76.9202141 53.66874527 78.74321244 62.92243727 78.48828125 73.546875 C78.48120651 74.68408997 78.47413177 75.82130493 78.46684265 76.99298096 C78.43914187 80.57936015 78.37644769 84.16410303 78.3125 87.75 C78.2873858 90.20049808 78.26457815 92.65102095 78.24414062 95.1015625 C78.18939471 101.06832642 78.10329143 107.03388706 78 113 C72.39 113 66.78 113 61 113 C60.98541748 111.55230225 60.97083496 110.10460449 60.95581055 108.61303711 C60.89769373 103.22493195 60.82046099 97.83723884 60.73754883 92.44946289 C60.70436252 90.12075505 60.67631112 87.79196798 60.65356445 85.46313477 C60.61990331 82.10919543 60.56758001 78.75597794 60.51171875 75.40234375 C60.50532883 74.36665756 60.4989389 73.33097137 60.49235535 72.26390076 C60.35875221 65.64597447 59.81419227 60.28767012 55.3515625 55.07421875 C54.78179687 54.61660156 54.21203125 54.15898438 53.625 53.6875 C52.77808594 52.98173828 52.77808594 52.98173828 51.9140625 52.26171875 C45.69824594 48.16435395 39.21833675 48.29511916 32 49 C25.74405077 50.86228792 21.16388359 56.31804908 17.94107056 61.80181885 C16.85566178 64.33714959 16.72371529 66.19974441 16.68115234 68.95214844 C16.66128265 69.93286316 16.64141296 70.91357788 16.62094116 71.92401123 C16.60361435 73.5007663 16.60361435 73.5007663 16.5859375 75.109375 C16.56657135 76.19132141 16.5472052 77.27326782 16.5272522 78.38800049 C16.46749763 81.84192026 16.42108703 85.29587344 16.375 88.75 C16.33681647 91.09246241 16.29776452 93.43491084 16.2578125 95.77734375 C16.16179927 101.51811553 16.07775256 107.25895303 16 113 C10.72 113 5.44 113 0 113 C0 75.71 0 38.42 0 0 Z " fill="#0C0B0B" transform="translate(241,730)"/>
<path d="M0 0 C5.28 0 10.56 0 16 0 C16.33 22.11 16.66 44.22 17 67 C24.96690363 58.32489469 24.96690363 58.32489469 32.7109375 49.453125 C45.58681609 34.79787531 45.58681609 34.79787531 53.9609375 33.71875 C59.08577564 33.54635744 63.96161769 34.08944898 69 35 C65.74303295 41.89514525 59.47126571 46.79288105 53.75 51.6875 C51.37924319 53.71757719 49.51801217 55.5783854 47.5 58 C44.84350707 61.18779152 41.97698228 63.67649244 38.76953125 66.2890625 C36.92132713 68.0760678 36.00059256 69.6498903 35 72 C35.42410156 72.4125 35.84820313 72.825 36.28515625 73.25 C40.07312666 76.97969394 43.65578134 80.81697834 47.125 84.84375 C49.17359094 87.19962958 51.27203002 89.5050746 53.375 91.8125 C59.53822506 98.63945699 65.26109865 105.81670101 71 113 C53.77455706 115.04546083 53.77455706 115.04546083 47.97265625 111.90136719 C44.45406522 109.02306398 41.81570944 105.48600167 39.23925781 101.76611328 C37.35962222 99.08737335 35.23277575 96.62580985 33.125 94.125 C32.41730469 93.24457031 31.70960938 92.36414063 30.98046875 91.45703125 C28.38939188 88.24246053 25.70389506 85.11987892 23 82 C20.22727246 83.57023165 18.82060643 84.45536123 17 87 C16.08532125 91.42701483 16.11529886 95.80389383 16.125 100.3125 C16.104375 101.53001953 16.08375 102.74753906 16.0625 104.00195312 C16.01545604 107.00100549 16.00425148 110.0005817 16 113 C10.72 113 5.44 113 0 113 C0 75.71 0 38.42 0 0 Z " fill="#06A334" transform="translate(797,730)"/>
<path d="M0 0 C5.28 0 10.56 0 16 0 C16 7.92 16 15.84 16 24 C23.26 24 30.52 24 38 24 C38 28.95 38 33.9 38 39 C30.74 39 23.48 39 16 39 C16.07414595 44.30271406 16.15710435 49.60378617 16.26245117 54.90576172 C16.29561773 56.70775729 16.32367525 58.50985467 16.34643555 60.31201172 C16.38013432 62.90896823 16.43245649 65.50499866 16.48828125 68.1015625 C16.49467117 68.9017984 16.5010611 69.7020343 16.50764465 70.52651978 C16.65570863 76.21396941 18.04453095 80.03199035 21.20703125 84.83203125 C24.11660437 86.72737409 27.3178982 86.57650896 30.6875 86.6875 C33.100625 86.790625 35.51375 86.89375 38 87 C38 92.28 38 97.56 38 103 C15.9311121 103.70059962 15.9311121 103.70059962 7.125 95.875 C0.89079291 88.78966496 -0.60385875 80.79882477 -0.390625 71.6171875 C-0.38213531 70.20676682 -0.38213531 70.20676682 -0.37347412 68.76785278 C-0.3513165 65.80302154 -0.30116127 62.83945782 -0.25 59.875 C-0.22990827 57.84897595 -0.21166222 55.82293271 -0.1953125 53.796875 C-0.15151969 48.86410467 -0.08263882 43.93226623 0 39 C-4.95 39 -9.9 39 -15 39 C-15 34.05 -15 29.1 -15 24 C-10.05 24 -5.1 24 0 24 C0 16.08 0 8.16 0 0 Z " fill="#0D0D0C" transform="translate(398,741)"/>
<path d="M0 0 C5.28 0 10.56 0 16 0 C16 7.92 16 15.84 16 24 C23.26 24 30.52 24 38 24 C38 28.62 38 33.24 38 38 C30.74 38 23.48 38 16 38 C16.05111827 43.73035829 16.11414615 49.45803206 16.20751953 55.1875 C16.23568321 57.13500245 16.2569206 59.08261822 16.27099609 61.03027344 C16.29248946 63.83587468 16.33917198 66.64012 16.390625 69.4453125 C16.39185364 70.31116974 16.39308228 71.17702698 16.39434814 72.06912231 C16.52497158 77.50373786 17.3522689 80.71006272 21 85 C26.07408011 88.38272008 32.00243268 87.66985868 38 88 C38 92.95 38 97.9 38 103 C16.4723611 103.89906613 16.4723611 103.89906613 8.94921875 97.1640625 C1.34022329 88.94067611 -0.16173699 81.35723386 -0.09765625 70.54296875 C-0.0962413 69.64000565 -0.09482635 68.73704254 -0.09336853 67.80671692 C-0.08778823 64.93361037 -0.07523934 62.06058284 -0.0625 59.1875 C-0.05748245 57.23502717 -0.05291999 55.28255311 -0.04882812 53.33007812 C-0.03782525 48.55335515 -0.02057418 43.77669096 0 39 C-4.95 39 -9.9 39 -15 39 C-15 34.05 -15 29.1 -15 24 C-10.05 24 -5.1 24 0 24 C0 16.08 0 8.16 0 0 Z " fill="#07A739" transform="translate(988,741)"/>
<path d="M0 0 C4.99022814 4.58007241 7.83828562 9.96412075 8.48828125 16.73046875 C8.75621095 26.50285195 5.93973454 33.39654967 -0.78515625 40.51953125 C-6.99683446 45.99025381 -13.55118739 46.92737137 -21.66796875 46.625 C-29.17981781 45.71101076 -33.6204034 42.11847931 -38.2734375 36.296875 C-43.69617433 28.77964194 -43.61999222 21.35525945 -42.75 12.25 C-40.80881213 4.84344389 -34.95752482 -0.61165012 -28.75 -4.75 C-18.53048993 -7.30487752 -8.3648423 -6.6280742 0 0 Z " fill="#F9FBF9" transform="translate(676.75,783.75)"/>
<path d="M0 0 C0 4.95 0 9.9 0 15 C-1.29035156 14.94199219 -2.58070313 14.88398437 -3.91015625 14.82421875 C-5.62756779 14.77729494 -7.34501872 14.7317976 -9.0625 14.6875 C-9.91005859 14.64560547 -10.75761719 14.60371094 -11.63085938 14.56054688 C-16.9780487 14.45731928 -20.25739297 15.1523626 -24.52514648 18.42895508 C-28.03541301 22.16816466 -29.37266731 25.42578813 -29.43237305 30.5246582 C-29.46206429 32.14577263 -29.46206429 32.14577263 -29.49235535 33.79963684 C-29.49874527 34.9550145 -29.50513519 36.11039215 -29.51171875 37.30078125 C-29.52966995 38.49229294 -29.54762115 39.68380463 -29.56611633 40.91142273 C-29.62023691 44.71174598 -29.65412176 48.51194348 -29.6875 52.3125 C-29.7206714 54.89129354 -29.75516089 57.47007049 -29.79101562 60.04882812 C-29.87596492 66.36579473 -29.94276856 72.68272392 -30 79 C-35.61 79 -41.22 79 -47 79 C-47.12435765 71.52935737 -47.21469867 64.05932819 -47.2746582 56.58789062 C-47.29967528 54.05067436 -47.33369984 51.51352923 -47.37719727 48.9765625 C-47.438412 45.31232057 -47.4663395 41.64903814 -47.48828125 37.984375 C-47.51408768 36.86512634 -47.5398941 35.74587769 -47.56648254 34.5927124 C-47.56970777 25.36753545 -45.27997554 17.52247973 -39.82421875 10 C-29.16084127 0.01892273 -14.59563359 -4.8652112 0 0 Z " fill="#0C9D36" transform="translate(775,764)"/>
<path d="M0 0 C5.28 0 10.56 0 16 0 C16 25.74 16 51.48 16 78 C10.72 78 5.44 78 0 78 C0 52.26 0 26.52 0 0 Z " fill="#0D0D0D" transform="translate(346,765)"/>
<path d="M0 0 C3.92174472 2.79462911 7.04544995 5.28692492 9.7265625 9.30859375 C10.2215625 13.26859375 10.2215625 13.26859375 10.7265625 17.30859375 C-4.4534375 17.30859375 -19.6334375 17.30859375 -35.2734375 17.30859375 C-33.97930094 9.54377439 -30.59614072 5.41398399 -24.234375 0.84375 C-16.8659634 -3.03363513 -7.45117268 -3.85006894 0 0 Z " fill="#F2FAF5" transform="translate(928.2734375,778.69140625)"/>
<path d="M0 0 C5.53846154 3.07692308 5.53846154 3.07692308 7 6 C7.55112923 10.59876684 7.61753151 13.97787887 5.1875 18 C2.35137661 20.5930271 0.4240707 20.95288103 -3.375 21.375 C-7 21 -7 21 -9.875 18.625 C-12.76406449 15.05615563 -13.47435449 12.77453224 -13.40625 8.109375 C-12.78209107 4.8685498 -11.23717102 3.18865787 -8.77734375 1.0703125 C-5.68424288 -0.79234605 -3.48720005 -0.62271429 0 0 Z " fill="#151515" transform="translate(357,730)"/>
<path d="M0 0 C0.33 0 0.66 0 1 0 C1 1.98 1 3.96 1 6 C7.51317004 7.17899734 13.93361897 7.14442685 20.5390625 7.1328125 C21.73808197 7.13376923 22.93710144 7.13472595 24.17245483 7.13571167 C26.6989548 7.13639028 29.22545654 7.1345583 31.75195312 7.13037109 C35.61852932 7.12500897 39.48498986 7.13033178 43.3515625 7.13671875 C45.80989609 7.1360581 48.26822961 7.1347772 50.7265625 7.1328125 C51.88185455 7.13483673 53.03714661 7.13686096 54.22744751 7.13894653 C55.30561737 7.13579437 56.38378723 7.13264221 57.49462891 7.12939453 C58.91190781 7.12820114 58.91190781 7.12820114 60.3578186 7.12698364 C62.99833508 7.00008002 65.42603693 6.58729861 68 6 C68 6.99 68 7.98 68 9 C44.9 9 21.8 9 -2 9 C-1.34 6.03 -0.68 3.06 0 0 Z " fill="#0A8B26" transform="translate(546,661)"/>
<path d="M0 0 C0.33 0.66 0.66 1.32 1 2 C-4.63468283 8.7116188 -10.75936424 14.86092974 -17 21 C-17.33 20.01 -17.66 19.02 -18 18 C-12.06 12.06 -6.12 6.12 0 0 Z " fill="#19B540" transform="translate(869,393)"/>
<path d="M0 0 C0.33 0 0.66 0 1 0 C2.15135091 5.63128684 1.7237781 9.79094943 0.25 15.3125 C-0.00523437 16.38467773 -0.00523437 16.38467773 -0.265625 17.47851562 C-1.61539054 22.74359369 -1.61539054 22.74359369 -5 25 C-4.37392048 19.20052651 -3.32599062 13.66190169 -1.9375 8 C-1.75123047 7.22527344 -1.56496094 6.45054687 -1.37304688 5.65234375 C-0.91923822 3.76729241 -0.46017508 1.8835073 0 0 Z " fill="#363636" transform="translate(318,630)"/>
<path d="M0 0 C10.23 0 20.46 0 31 0 C29.35 1.98 27.7 3.96 26 6 C25.34 4.68 24.68 3.36 24 2 C16.08 1.67 8.16 1.34 0 1 C0 0.67 0 0.34 0 0 Z " fill="#21C051" transform="translate(955,388)"/>
<path d="M0 0 C0.99 0 1.98 0 3 0 C2.86335938 0.53367187 2.72671875 1.06734375 2.5859375 1.6171875 C2.15060757 3.38752922 1.74354307 5.16487065 1.3515625 6.9453125 C1.11179687 7.99460937 0.87203125 9.04390625 0.625 10.125 C0.39039063 11.17945313 0.15578125 12.23390625 -0.0859375 13.3203125 C-1 16 -1 16 -4 18 C-2.28571429 2.28571429 -2.28571429 2.28571429 0 0 Z " fill="#383839" transform="translate(337,552)"/>
<path d="M0 0 C0.33 0.99 0.66 1.98 1 3 C-0.71998664 4.801317 -2.45002291 6.59068463 -4.1875 8.375 C-4.91163086 9.13683594 -4.91163086 9.13683594 -5.65039062 9.9140625 C-8.56117467 12.88345293 -11.00455339 14.78748787 -15 16 C-10.30233025 10.33870569 -5.25276628 5.14771096 0 0 Z " fill="#0EB137" transform="translate(850,412)"/>
<path d="M0 0 C0.66 0.33 1.32 0.66 2 1 C1.67 1.66 1.34 2.32 1 3 C0.34 3 -0.32 3 -1 3 C-2.98856429 6.62084414 -3.69877908 10.0442323 -4.4375 14.07421875 C-4.623125 14.70972656 -4.80875 15.34523438 -5 16 C-5.66 16.33 -6.32 16.66 -7 17 C-7.17287234 8.18351064 -7.17287234 8.18351064 -6 5 C-4.11762195 3.09664838 -2.15954525 1.608172 0 0 Z " fill="#0C8E24" transform="translate(572,568)"/>
<path d="M0 0 C0.66 0.66 1.32 1.32 2 2 C1.68794085 6.75890208 1.03944563 10.64918266 -1 15 C-1.66 15 -2.32 15 -3 15 C-2.69052329 13.06201479 -2.37731166 11.12462574 -2.0625 9.1875 C-1.88847656 8.10855469 -1.71445312 7.02960937 -1.53515625 5.91796875 C-1 3 -1 3 0 0 Z M2 0 C2.99 0.495 2.99 0.495 4 1 C3.01 1.495 3.01 1.495 2 2 C2 1.34 2 0.68 2 0 Z " fill="#19B43F" transform="translate(803,645)"/>
<path d="M0 0 C0.99 0.99 1.98 1.98 3 3 C1.49829538 8.98551772 0.05773837 14.61255621 -3 20 C-4.37344385 15.60155678 -3.24307502 12.07495445 -2.0625 7.75 C-1.86720703 7.00492188 -1.67191406 6.25984375 -1.47070312 5.4921875 C-0.98895802 3.65920614 -0.49560775 1.82928182 0 0 Z " fill="#2F9F46" transform="translate(557,611)"/>
<path d="M0 0 C0.33 1.32 0.66 2.64 1 4 C-0.43359375 5.921875 -0.43359375 5.921875 -2.4375 7.75 C-3.09621094 8.36359375 -3.75492188 8.9771875 -4.43359375 9.609375 C-4.95050781 10.06828125 -5.46742188 10.5271875 -6 11 C-6.99 10.34 -7.98 9.68 -9 9 C-6.03 6.03 -3.06 3.06 0 0 Z " fill="#20B148" transform="translate(826,784)"/>
<path d="M0 0 C0.33 0.66 0.66 1.32 1 2 C0.67 2.66 0.34 3.32 0 4 C-0.66 4 -1.32 4 -2 4 C-2 4.99 -2 5.98 -2 7 C-3.96875 8.82421875 -3.96875 8.82421875 -6.5 10.6875 C-7.75296875 11.62142578 -7.75296875 11.62142578 -9.03125 12.57421875 C-9.6809375 13.04472656 -10.330625 13.51523437 -11 14 C-11.66 13.67 -12.32 13.34 -13 13 C-8.71 8.71 -4.42 4.42 0 0 Z " fill="#108E2A" transform="translate(590,549)"/>
<path d="M0 0 C0 3.69840628 -0.82866944 4.31415433 -3.25 7 C-4.15492188 8.0209375 -4.15492188 8.0209375 -5.078125 9.0625 C-6.93766612 10.93715934 -8.84794211 12.47641919 -11 14 C-11.66 13.67 -12.32 13.34 -13 13 C-8.71 8.71 -4.42 4.42 0 0 Z " fill="#15AE39" transform="translate(767,493)"/>
<path d="M0 0 C0 3.94354501 -1.37303048 5.14145968 -3.8125 8.1875 C-4.52019531 9.08855469 -5.22789062 9.98960937 -5.95703125 10.91796875 C-6.63121094 11.60503906 -7.30539062 12.29210937 -8 13 C-8.99 13 -9.98 13 -11 13 C-9.46356148 9.31930113 -7.21849055 7.01224796 -4.375 4.25 C-3.55773437 3.45078125 -2.74046875 2.6515625 -1.8984375 1.828125 C-0.95871094 0.92320312 -0.95871094 0.92320312 0 0 Z " fill="#1D9F36" transform="translate(625,511)"/>
<path d="M0 0 C0.33 0 0.66 0 1 0 C0.52013969 5.56890517 -0.29915181 10.67067568 -2 16 C-2.33 16 -2.66 16 -3 16 C-3.02708567 14.39592672 -3.04643483 12.7917215 -3.0625 11.1875 C-3.07410156 10.29417969 -3.08570313 9.40085937 -3.09765625 8.48046875 C-3 6 -3 6 -2 3 C-1.34 3 -0.68 3 0 3 C0 2.01 0 1.02 0 0 Z " fill="#303030" transform="translate(352,490)"/>
<path d="M0 0 C0.99 0.99 1.98 1.98 3 3 C0.10933941 12.59453303 0.10933941 12.59453303 -3 16 C-2.30834212 10.58201328 -1.24200752 5.3177215 0 0 Z " fill="#36A34B" transform="translate(552,631)"/>
<path d="M0 0 C0.66 0.33 1.32 0.66 2 1 C1.34 3.64 0.68 6.28 0 9 C-0.66 8.34 -1.32 7.68 -2 7 C-3.32 6.67 -4.64 6.34 -6 6 C-4.02 4.02 -2.04 2.04 0 0 Z " fill="#CDF1D9" transform="translate(830,527)"/>
<path d="M0 0 C0.99 0.66 1.98 1.32 3 2 C2.50769231 8.52307692 2.50769231 8.52307692 -0.0625 10.9375 C-0.701875 11.288125 -1.34125 11.63875 -2 12 C-1 3.42857143 -1 3.42857143 0 0 Z " fill="#2C9D46" transform="translate(547,652)"/>
<path d="M0 0 C0.33 0 0.66 0 1 0 C1.33 3.63 1.66 7.26 2 11 C0.02 11.99 0.02 11.99 -2 13 C-1.85769192 11.58297487 -1.71099254 10.1663904 -1.5625 8.75 C-1.48128906 7.96109375 -1.40007812 7.1721875 -1.31640625 6.359375 C-1.02365007 4.17635361 -0.57935581 2.1226818 0 0 Z " fill="#424242" transform="translate(329,583)"/>
<path d="M0 0 C0.33 0.99 0.66 1.98 1 3 C-0.051875 3.309375 -0.051875 3.309375 -1.125 3.625 C-4.95725116 5.45781577 -7.10452507 7.90251519 -10 11 C-10.66 10.67 -11.32 10.34 -12 10 C-10.38113585 8.32737283 -8.7547271 6.66204463 -7.125 5 C-6.22007812 4.071875 -5.31515625 3.14375 -4.3828125 2.1875 C-2 0 -2 0 0 0 Z " fill="#2AB447" transform="translate(684,450)"/>
<path d="M0 0 C0.33 0 0.66 0 1 0 C0.85892253 1.45880109 0.71197585 2.91703551 0.5625 4.375 C0.48128906 5.18710937 0.40007812 5.99921875 0.31640625 6.8359375 C0 9 0 9 -1 11 C-1.66 11 -2.32 11 -3 11 C-2.67 8.36 -2.34 5.72 -2 3 C-1.34 3 -0.68 3 0 3 C0 2.01 0 1.02 0 0 Z " fill="#2D2D2D" transform="translate(325,606)"/>
<path d="M0 0 C0.66 0.66 1.32 1.32 2 2 C-0.31 4.31 -2.62 6.62 -5 9 C-5.66 8.34 -6.32 7.68 -7 7 C-4.69 4.69 -2.38 2.38 0 0 Z " fill="#0CA732" transform="translate(747,513)"/>
<path d="M0 0 C0.66 0.33 1.32 0.66 2 1 C-0.97 4.3 -3.94 7.6 -7 11 C-7.33 10.34 -7.66 9.68 -8 9 C-6.85459775 7.68712379 -5.70866567 6.37470979 -4.5625 5.0625 C-3.92441406 4.33160156 -3.28632813 3.60070312 -2.62890625 2.84765625 C-1.77458541 1.87860647 -0.91348825 0.91348825 0 0 Z " fill="#DEDEDF" transform="translate(267,781)"/>
<path d="M0 0 C0.66 0 1.32 0 2 0 C2.625 2.3125 2.625 2.3125 3 5 C2.01 6.485 2.01 6.485 1 8 C0.34 8 -0.32 8 -1 8 C-0.67 5.36 -0.34 2.72 0 0 Z " fill="#2C2C2C" transform="translate(357,464)"/>
<path d="M0 0 C-1.49097658 3.7952131 -3.75700849 5.61042731 -7 8 C-7.66 7.67 -8.32 7.34 -9 7 C-7.88121617 5.82737096 -6.75476949 4.66204862 -5.625 3.5 C-4.68527344 2.52546875 -4.68527344 2.52546875 -3.7265625 1.53125 C-2 0 -2 0 0 0 Z " fill="#08AC30" transform="translate(844,420)"/>
<path d="M0 0 C0.33 0 0.66 0 1 0 C0.91291331 1.45945288 0.80473093 2.91765868 0.6875 4.375 C0.62949219 5.18710937 0.57148438 5.99921875 0.51171875 6.8359375 C0 9 0 9 -3 11 C-2.67 8.36 -2.34 5.72 -2 3 C-1.34 3 -0.68 3 0 3 C0 2.01 0 1.02 0 0 Z " fill="#343434" transform="translate(356,473)"/>
<path d="M0 0 C0.33 0.99 0.66 1.98 1 3 C-1.97 5.475 -1.97 5.475 -5 8 C-5.66 7.67 -6.32 7.34 -7 7 C-4.69 4.69 -2.38 2.38 0 0 Z " fill="#23B046" transform="translate(838,772)"/>
<path d="M0 0 C0.33 0.99 0.66 1.98 1 3 C-1.31 4.98 -3.62 6.96 -6 9 C-6.66 8.67 -7.32 8.34 -8 8 C-5.36 5.36 -2.72 2.72 0 0 Z " fill="#27BE4B" transform="translate(823,438)"/>
<path d="M0 0 C0.66 0.99 1.32 1.98 2 3 C-0.97 5.475 -0.97 5.475 -4 8 C-4.66 7.67 -5.32 7.34 -6 7 C-4.02 4.69 -2.04 2.38 0 0 Z " fill="#29AB4B" transform="translate(681,817)"/>
<path d="M0 0 C1.10844919 3.32534757 0.84454356 5.62182575 0 9 C-0.66 8.67 -1.32 8.34 -2 8 C-2.20086443 4.28400809 -2.1519437 3.22791555 0 0 Z " fill="#21A037" transform="translate(562,595)"/>
</svg>
